PathFileType	4	(X/Y/Z)	/Users/itak/Documents/Research/Walk-IL/dataset/trc/00123_00007.trc
DataRate	CameraRate	NumFrames	NumMarkers	Units	OrigDataRate	OrigDataStartFrame	OrigNumFrames
100.000000	100.000000	4	53	mm	100.000000	363	727
Frame#	Time	RPSI			LPSI			L3			STRN			T10			C7			CLAV			RBAK			LBAK			LSHO			LUPA			LAEL			LAOL			LWTS			LWPS			LFRA			LIFD			LHPS			LHTS			RSHO			RUPA			RAEL			RAOL			RWTS			RWPS			RFRA			RIFD			RHTS			RHPS			RBHD			LFHD			RFHD			LBHD			LHIP			RHIP			RASI			LASI			LKNE			LTHI			LANK			LTIP			LTOE			LMT1			LMT5			LHEE			RKNE			RTHI			RANK			RTIP			RTOE			RMT1			RMT5			RHEE			
		X1	Y1	Z1	X2	Y2	Z2	X3	Y3	Z3	X4	Y4	Z4	X5	Y5	Z5	X6	Y6	Z6	X7	Y7	Z7	X8	Y8	Z8	X9	Y9	Z9	X10	Y10	Z10	X11	Y11	Z11	X12	Y12	Z12	X13	Y13	Z13	X14	Y14	Z14	X15	Y15	Z15	X16	Y16	Z16	X17	Y17	Z17	X18	Y18	Z18	X19	Y19	Z19	X20	Y20	Z20	X21	Y21	Z21	X22	Y22	Z22	X23	Y23	Z23	X24	Y24	Z24	X25	Y25	Z25	X26	Y26	Z26	X27	Y27	Z27	X28	Y28	Z28	X29	Y29	Z29	X30	Y30	Z30	X31	Y31	Z31	X32	Y32	Z32	X33	Y33	Z33	X34	Y34	Z34	X35	Y35	Z35	X36	Y36	Z36	X37	Y37	Z37	X38	Y38	Z38	X39	Y39	Z39	X40	Y40	Z40	X41	Y41	Z41	X42	Y42	Z42	X43	Y43	Z43	X44	Y44	Z44	X45	Y45	Z45	X46	Y46	Z46	X47	Y47	Z47	X48	Y48	Z48	X49	Y49	Z49	X50	Y50	Z50	X51	Y51	Z51	X52	Y52	Z52	X53	Y53	Z53	

364	3.63	295.3966674804688	1108.712768554688	-589.3955688476562	279.4649963378906	1099.860473632812	-455.8887939453125	294.1499328613281	1142.156005859375	-520.63671875	65.53964233398438	1330.620483398438	-547.9085083007812	312.256103515625	1292.8359375	-524.9402465820312	265.71142578125	1581.68212890625	-493.7515258789062	93.05528259277344	1465.945068359375	-527.4999389648438	337.994873046875	1410.306884765625	-589.2694702148438	263.1130676269531	1552.230346679688	-393.9054870605469	172.8775024414062	1528.1015625	-334.6934509277344	206.3179016113281	1395.876953125	-271.4638061523438	230.2624664306641	1180.277587890625	-258.7058715820312	296.9972839355469	1180.40576171875	-316.4647216796875	167.3920288085938	913.6172485351562	-312.2940368652344	251.6904296875	897.987548828125	-287.372802734375	232.0433349609375	1062.919799804688	-258.3784790039062	183.8673553466797	724.2991943359375	-347.3787841796875	234.0770721435547	819.693115234375	-289.7779846191406	165.1800994873047	822.03125	-304.1065368652344	228.0712432861328	1577.915893554688	-678.8485107421875	253.1663513183594	1513.1171875	-748.4794311523438	259.7394409179688	1227.791625976562	-820.9912109375	261.8297424316406	1208.671508789062	-725.1469116210938	92.42563629150391	1000.463684082031	-855.33935546875	168.8493194580078	981.1034545898438	-884.135986328125	230.7813262939453	1158.73583984375	-849.1472778320312	52.68798065185547	810.7569580078125	-865.8666381835938	51.30799102783203	898.8892822265625	-881.8844604492188	120.7381057739258	887.8721923828125	-907.2139282226562	190.4259490966797	1771.036987304688	-554.7732543945312	45.0407829284668	1774.964477539062	-387.4088439941406	21.12978172302246	1809.69140625	-512.355224609375	220.4904174804688	1741.305541992188	-426.5926208496094	160.4318542480469	1005.596618652344	-370.6763610839844	198.1789855957031	1017.449768066406	-734.1459350585938	105.0287322998047	1081.803955078125	-697.9321899414062	66.86300659179688	1072.426391601562	-435.419189453125	-74.79017639160156	560.2913208007812	-453.0976257324219	18.98724746704102	677.6277465820312	-404.0798950195312	-22.49493217468262	44.83396911621094	-531.3638305664062	-5.088187217712402	292.7618713378906	-470.6736450195312	-249.6678009033203	76.17027282714844	-550.981201171875	-180.6753692626953	66.60289001464844	-596.84228515625	-140.6640777587891	52.78353881835938	-491.5970764160156	36.75496673583984	46.8415641784668	-604.1644897460938	266.2947692871094	528.093505859375	-714.8392333984375	202.4643859863281	804.2731323242188	-736.2655029296875	453.1630249023438	38.63822174072266	-686.7740478515625	316.0865783691406	399.1602478027344	-722.6976318359375	210.9548187255859	37.24655914306641	-678.986083984375	266.757080078125	34.29824066162109	-627.734619140625	325.6881103515625	36.55972290039062	-736.8253784179688	501.2630615234375	44.64801788330078	-629.0967407226562	
365	3.64	285.8597717285156	1107.473510742188	-590.4835205078125	270.5680541992188	1098.405151367188	-456.9838256835938	284.9326171875	1140.62841796875	-521.84619140625	56.43363189697266	1328.79248046875	-548.0593872070312	303.0150146484375	1291.097412109375	-526.816650390625	256.9463806152344	1580.043579101562	-495.4679260253906	83.60927581787109	1464.1396484375	-527.8970336914062	328.5938110351562	1408.65380859375	-591.4002075195312	255.0871887207031	1550.547241210938	-395.5984497070312	165.3371429443359	1526.41748046875	-335.6375732421875	199.5207061767578	1394.186645507812	-272.7915649414062	224.1966400146484	1178.66943359375	-260.3545227050781	290.0671081542969	1178.899780273438	-319.0044860839844	161.0322875976562	911.8279418945312	-313.1775817871094	245.7943115234375	896.439453125	-289.2646789550781	226.0231018066406	1061.306030273438	-260.0652770996094	177.7027740478516	722.4839477539062	-348.36279296875	228.3701171875	818.0858154296875	-291.4186096191406	159.3116912841797	820.1913452148438	-304.98486328125	217.8728332519531	1576.166625976562	-680.2568969726562	242.3893127441406	1511.307006835938	-750.0685424804688	247.7705383300781	1226.0048828125	-822.9157104492188	250.7631378173828	1206.967163085938	-727.2568969726562	78.96279907226562	999.4593505859375	-855.7958984375	155.0620269775391	979.6845703125	-885.2539672851562	218.1880798339844	1156.99560546875	-850.78662109375	38.51774978637695	810.0025634765625	-865.8909912109375	37.1446647644043	898.1406860351562	-882.009765625	106.1956939697266	886.71728515625	-907.9398193359375	180.9654083251953	1769.356689453125	-556.001953125	37.34351348876953	1773.265747070312	-387.1907348632812	12.33005428314209	1808.043212890625	-512.1140747070312	212.2403564453125	1739.5693359375	-428.0570068359375	151.8241577148438	1003.884643554688	-371.2816772460938	188.4390411376953	1015.915466308594	-734.814208984375	94.76334381103516	1080.037231445312	-698.4308471679688	57.97438430786133	1070.547485351562	-435.6234741210938	-79.46319580078125	557.1129760742188	-450.9622497558594	14.24245166778564	674.1044921875	-402.7357482910156	-51.84820938110352	41.66799545288086	-533.2564697265625	-20.94305229187012	288.1538696289062	-471.4349365234375	-277.806396484375	81.95864105224609	-547.6832885742188	-210.4845886230469	70.22133636474609	-595.0576782226562	-168.5890655517578	53.82220840454102	-490.877197265625	5.713970184326172	41.96482849121094	-607.2435302734375	260.5611267089844	527.26806640625	-715.120361328125	194.3090972900391	802.9185791015625	-736.5903930664062	452.9512329101562	39.51189422607422	-686.3054809570312	312.0422058105469	398.7659301757812	-722.9121704101562	210.7446746826172	37.10517883300781	-678.985595703125	266.6248779296875	34.31488418579102	-627.7677001953125	325.5476684570312	36.56541061401367	-736.7954711914062	500.9584045410156	46.03881072998047	-628.68994140625	
366	3.65	276.1592712402344	1106.194213867188	-591.3473510742188	261.4194641113281	1096.89306640625	-457.8584594726562	275.5188598632812	1139.037963867188	-522.8209838867188	47.18917465209961	1326.97802734375	-548.0901489257812	293.6329650878906	1289.299926757812	-528.4257202148438	248.1150512695312	1578.3603515625	-496.9851684570312	74.12037658691406	1462.33203125	-528.1552734375	319.1346740722656	1406.929321289062	-593.25927734375	246.9338073730469	1548.82470703125	-397.0912475585938	157.6502685546875	1524.724487304688	-336.4161376953125	192.5716094970703	1392.483032226562	-273.9352722167969	217.9823303222656	1177.046508789062	-261.8408203125	282.9671325683594	1177.3828125	-321.37841796875	154.5075836181641	910.053466796875	-313.9429016113281	239.6765441894531	894.872802734375	-291.0546264648438	219.8118896484375	1059.6689453125	-261.6257019042969	171.2870635986328	720.6908569335938	-349.27685546875	222.4123382568359	816.4649658203125	-292.9862365722656	153.2225036621094	818.3674926757812	-305.7828369140625	207.7061157226562	1574.355712890625	-681.4705810546875	231.6584167480469	1509.416625976562	-751.4344482421875	235.8048400878906	1224.128051757812	-824.5564575195312	239.6784210205078	1205.220825195312	-729.108642578125	65.60355377197266	998.3013916015625	-855.9762573242188	141.3625793457031	978.1376953125	-886.053466796875	205.6111450195312	1155.158935546875	-852.1199951171875	24.43081283569336	809.0760498046875	-865.6182250976562	23.15767097473145	897.2078247070312	-881.8367919921875	91.82487487792969	885.4188842773438	-908.3374633789062	171.4770202636719	1767.6669921875	-557.070068359375	29.60145950317383	1771.575317382812	-386.8516235351562	3.465512037277222	1806.37255859375	-511.6900939941406	204.0199279785156	1737.86767578125	-429.439208984375	143.047119140625	1002.085388183594	-371.7565612792969	178.5837707519531	1014.371154785156	-735.3117065429688	84.34298706054688	1078.299194335938	-698.8029174804688	48.86057281494141	1068.647338867188	-435.7179870605469	-83.77643585205078	553.6152954101562	-449.1630859375	9.709439277648926	670.2959594726562	-401.5815734863281	-80.13613891601562	39.275146484375	-534.325927734375	-36.13431930541992	283.8845825195312	-472.0046081542969	-304.5228881835938	88.08024597167969	-543.98095703125	-238.9064331054688	74.31243133544922	-592.708740234375	-195.3295135498047	55.44265365600586	-489.57373046875	-24.27044677734375	37.9107551574707	-609.3787841796875	254.5382232666016	526.431640625	-715.3822021484375	185.9708862304688	801.5676879882812	-736.8419799804688	452.7248229980469	40.52873229980469	-685.9588012695312	307.70849609375	398.3770141601562	-723.1154174804688	210.5412139892578	36.96625900268555	-678.974365234375	266.505615234375	34.32707595825195	-627.8103637695312	325.3893127441406	36.56966781616211	-736.7826538085938	500.6763305664062	47.62868118286133	-628.3834838867188	
367	3.66	266.2859191894531	1104.869262695312	-592.0032348632812	252.001708984375	1095.326293945312	-458.5210571289062	265.8939819335938	1137.38916015625	-523.5742797851562	37.80475234985352	1325.191772460938	-548.0046997070312	284.1073913574219	1287.4560546875	-529.7634887695312	239.2080688476562	1576.639526367188	-498.2900390625	64.6500244140625	1460.542724609375	-528.2637329101562	309.6029052734375	1405.1396484375	-594.8366088867188	238.6464233398438	1547.072998046875	-398.373046875	149.8074188232422	1523.037231445312	-337.0215148925781	185.4584655761719	1390.779052734375	-274.8863830566406	211.5934600830078	1175.421875	-263.1591491699219	275.6850891113281	1175.8681640625	-323.5778503417969	147.8069610595703	908.3049926757812	-314.5890197753906	233.3364562988281	893.30224609375	-292.7346496582031	213.4069213867188	1058.024658203125	-263.0517578125	164.6195373535156	718.9326782226562	-350.1113891601562	216.2031860351562	814.8438110351562	-294.4734497070312	146.9140472412109	816.5742797851562	-306.4915466308594	197.5745697021484	1572.49755859375	-682.48095703125	220.9804077148438	1507.461303710938	-752.567626953125	223.8334045410156	1222.169799804688	-825.8950805664062	228.5563812255859	1203.429077148438	-730.6672973632812	52.3575553894043	997.0011596679688	-855.8804321289062	127.7666854858398	976.4834594726562	-886.540283203125	193.0557556152344	1153.24365234375	-853.1386108398438	10.41041374206543	807.98828125	-865.073486328125	9.353267669677734	896.099853515625	-881.3744506835938	77.64089965820312	883.9966430664062	-908.417236328125	161.9674377441406	1765.9833984375	-557.9710083007812	21.80751419067383	1769.900146484375	-386.3857421875	-5.477989196777344	1804.691650390625	-511.0570373535156	195.8403625488281	1736.222778320312	-430.7349853515625	134.0837249755859	1000.224914550781	-372.0962829589844	168.5899505615234	1012.812683105469	-735.647216796875	73.80776214599609	1076.589477539062	-699.0484008789062	39.53276824951172	1066.7470703125	-435.7091369628906	-87.85470581054688	549.8832397460938	-447.73828125	5.291159152984619	666.283935546875	-400.6427612304688	-107.0299987792969	37.5802001953125	-534.6356201171875	-50.57435607910156	279.9798278808594	-472.4045715332031	-329.6080627441406	94.36383819580078	-539.94873046875	-265.670166015625	78.70082855224609	-589.8712768554688	-220.6162567138672	57.55149459838867	-487.7337341308594	-52.87188720703125	34.57145309448242	-610.64208984375	248.1979522705078	525.5636596679688	-715.611572265625	177.4197540283203	800.2127075195312	-737.0232543945312	452.4878845214844	41.71410369873047	-685.7536010742188	303.0492553710938	397.9833679199219	-723.2935180664062	210.3487243652344	36.83398056030273	-678.9525146484375	266.399658203125	34.33621978759766	-627.860595703125	325.2157287597656	36.57079696655273	-736.7864990234375	500.4089050292969	49.42388534545898	-628.1937255859375	
